<?xml version="1.0" ?><svg id="Layer_1" style="enable-background:new 0 0 512 512;" version="1.1" viewBox="0 0 512 512" xml:space="preserve" xmlns="http://www.w3.org/2000/svg" xmlns:xlink="http://www.w3.org/1999/xlink"><style type="text/css">
	.st0{fill:#55A47E;}
</style><g id="XMLID_134_"><g id="XMLID_139_"><path class="st0" d="M196.5,239.6h-103v30.3h103V239.6z M142.8,259.7c-2.7,0-4.9-2.2-4.9-4.9    c0-2.7,2.2-4.9,4.9-4.9c2.7,0,4.9,2.2,4.9,4.9C147.7,257.5,145.5,259.7,142.8,259.7z" id="XMLID_157_"/><path class="st0" d="M413.3,239.9H239v57.5h174.3V239.9z M323.4,274.2c-2.7,0-4.9-2.2-4.9-4.9    c0-2.7,2.2-4.9,4.9-4.9c2.7,0,4.9,2.2,4.9,4.9C328.2,272.1,326,274.2,323.4,274.2z" id="XMLID_154_"/><path class="st0" d="M454.2,202.6H57.8c-7.2,0-13.1,5.9-13.1,13.1V236H56v270h10.2h23.2h111h29.6h3.8V335.2h184.3    V506h33.4V236h15.6v-20.3C467.3,208.4,461.4,202.6,454.2,202.6z M129.3,472.6H89.5V307.2h39.9V472.6z M200.5,472.6h-37.7V307.2    h37.7V472.6z M200.5,273.8h-111V236h111V273.8z M418.2,301.8H233.9V236h184.3V301.8z" id="XMLID_148_"/><path class="st0" d="M174.7,111.6c0-1.5,0-2.9-0.1-4.3H103c-0.1,1.4-0.1,2.9-0.1,4.3c0,22.8,11.5,59.8,27,70.8    c-4.8,2.8-8,7.4-8,10.5c0,0.3,0,0.5,0.1,0.8h33.8c0-0.3,0.1-0.5,0.1-0.8c0-3.1-3.2-7.7-8-10.5    C163.2,171.4,174.7,134.4,174.7,111.6z" id="XMLID_147_"/><path class="st0" d="M176.2,29.5C173.2,15.5,164.4,6,154.5,6H123c-9.9,0-18.7,9.5-21.7,23.5l-12.5,57h100    L176.2,29.5z" id="XMLID_146_"/><path class="st0" d="M125,312.6H93.8v155.6H125V312.6z M108.8,395.3c-2.7,0-4.9-2.2-4.9-4.9    c0-2.7,2.2-4.9,4.9-4.9c2.7,0,4.9,2.2,4.9,4.9C113.7,393.2,111.5,395.3,108.8,395.3z" id="XMLID_143_"/><path class="st0" d="M196.6,312.6h-30.3v155.6h30.3V312.6z M180.8,395.3c-2.7,0-4.9-2.2-4.9-4.9    c0-2.7,2.2-4.9,4.9-4.9c2.7,0,4.9,2.2,4.9,4.9C185.7,393.2,183.5,395.3,180.8,395.3z" id="XMLID_140_"/></g><path class="st0" d="M323.4,273.2c-2.1,0-3.9-1.7-3.9-3.9s1.7-3.9,3.9-3.9c2.1,0,3.9,1.7,3.9,3.9   S325.5,273.2,323.4,273.2z" id="XMLID_138_"/><path class="st0" d="M142.8,258.7c-2.1,0-3.9-1.7-3.9-3.9s1.7-3.9,3.9-3.9s3.9,1.7,3.9,3.9S145,258.7,142.8,258.7z   " id="XMLID_137_"/><path class="st0" d="M180.8,394.3c-2.1,0-3.9-1.7-3.9-3.9c0-2.1,1.7-3.9,3.9-3.9s3.9,1.7,3.9,3.9   C184.7,392.6,183,394.3,180.8,394.3z" id="XMLID_136_"/><path class="st0" d="M108.8,394.3c-2.1,0-3.9-1.7-3.9-3.9c0-2.1,1.7-3.9,3.9-3.9s3.9,1.7,3.9,3.9   C112.7,392.6,111,394.3,108.8,394.3z" id="XMLID_135_"/></g></svg>