<?xml version="1.0" ?><svg baseProfile="tiny" id="Layer_1" version="1.2" viewBox="0 0 512 512" xml:space="preserve" xmlns="http://www.w3.org/2000/svg" xmlns:xlink="http://www.w3.org/1999/xlink"><g id="XMLID_1675_"><circle cx="256" cy="256" fill="#006A9C" id="XMLID_2284_" r="256"/><g id="XMLID_3_"><path d="M119.8,196.5v212.1h84V196.5H119.8z M139.4,399.8H123v-14.2c0-4,2.6-7.3,5.8-7.3h5    c3.2,0,5.8,3.3,5.8,7.3L139.4,399.8L139.4,399.8z M139.5,370.7H123v-14.2c0-4,2.6-7.3,5.8-7.3h4.9c3.2,0,5.8,3.3,5.8,7.3V370.7z     M139.6,341.6h-16.4v-14.2c0-4,2.6-7.3,5.8-7.3h5c3.2,0,5.8,3.3,5.8,7.3L139.6,341.6L139.6,341.6z M139.6,312.4h-16.4v-14.2    c0-4,2.6-7.3,5.8-7.3h5c3.2,0,5.8,3.3,5.8,7.3L139.6,312.4L139.6,312.4z M139.7,283.3h-16.4v-14.2c0-4,2.6-7.3,5.8-7.3h5    c3.2,0,5.8,3.3,5.8,7.3L139.7,283.3L139.7,283.3z M139.7,254.2h-16.4V240c0-4,2.6-7.3,5.8-7.3h5c3.2,0,5.8,3.3,5.8,7.3    L139.7,254.2L139.7,254.2z M139.8,225.1h-16.4v-14.2c0-4,2.6-7.3,5.8-7.3h5c3.2,0,5.8,3.3,5.8,7.3L139.8,225.1L139.8,225.1z     M159.6,399.8h-16.4v-14.2c0-4,2.6-7.3,5.8-7.3h5c3.2,0,5.8,3.3,5.8,7.3L159.6,399.8L159.6,399.8z M159.6,370.7h-16.4v-14.2    c0-4,2.6-7.3,5.8-7.3h5c3.2,0,5.8,3.3,5.8,7.3L159.6,370.7L159.6,370.7z M159.7,341.6h-16.4v-14.2c0-4,2.6-7.3,5.8-7.3h5    c3.2,0,5.8,3.3,5.8,7.3L159.7,341.6L159.7,341.6z M159.8,312.4h-16.4v-14.2c0-4,2.6-7.3,5.8-7.3h5c3.2,0,5.8,3.3,5.8,7.3    L159.8,312.4L159.8,312.4z M159.8,283.3h-16.4v-14.2c0-4,2.6-7.3,5.8-7.3h5c3.2,0,5.8,3.3,5.8,7.3L159.8,283.3L159.8,283.3z     M159.9,254.2h-16.4V240c0-4,2.6-7.3,5.8-7.3h5c3.2,0,5.8,3.3,5.8,7.3L159.9,254.2L159.9,254.2z M160,225.1h-16.4v-14.2    c0-4,2.6-7.3,5.8-7.3h5c3.2,0,5.8,3.3,5.8,7.3L160,225.1L160,225.1z M179.7,399.8h-16.4v-14.2c0-4,2.6-7.3,5.8-7.3h5    c3.2,0,5.8,3.3,5.8,7.3L179.7,399.8L179.7,399.8z M179.8,370.7h-16.4v-14.2c0-4,2.6-7.3,5.8-7.3h5c3.2,0,5.8,3.3,5.8,7.3    L179.8,370.7L179.8,370.7z M179.9,341.6h-16.4v-14.2c0-4,2.6-7.3,5.8-7.3h5c3.2,0,5.8,3.3,5.8,7.3L179.9,341.6L179.9,341.6z     M179.9,312.4h-16.4v-14.2c0-4,2.6-7.3,5.8-7.3h5c3.2,0,5.8,3.3,5.8,7.3L179.9,312.4L179.9,312.4z M180,283.3h-16.4v-14.2    c0-4,2.6-7.3,5.8-7.3h5c3.2,0,5.8,3.3,5.8,7.3L180,283.3L180,283.3z M180.1,254.2h-16.4V240c0-4,2.6-7.3,5.8-7.3h5    c3.2,0,5.8,3.3,5.8,7.3L180.1,254.2L180.1,254.2z M180.1,225.1h-16.4v-14.2c0-4,2.6-7.3,5.8-7.3h5c3.2,0,5.8,3.3,5.8,7.3    L180.1,225.1L180.1,225.1z M199.8,399.8h-16.4v-14.2c0-4,2.6-7.3,5.8-7.3h5c3.2,0,5.8,3.3,5.8,7.3L199.8,399.8L199.8,399.8z     M199.9,370.7h-16.4v-14.2c0-4,2.6-7.3,5.8-7.3h5c3.2,0,5.8,3.3,5.8,7.3L199.9,370.7L199.9,370.7z M200,341.6h-16.4v-14.2    c0-4,2.6-7.3,5.8-7.3h5c3.2,0,5.8,3.3,5.8,7.3L200,341.6L200,341.6z M200.1,312.4h-16.4v-14.2c0-4,2.6-7.3,5.8-7.3h5    c3.2,0,5.8,3.3,5.8,7.3L200.1,312.4L200.1,312.4z M200.2,283.3h-16.4v-14.2c0-4,2.6-7.3,5.8-7.3h5c3.2,0,5.8,3.3,5.8,7.3    L200.2,283.3L200.2,283.3z M200.2,254.2h-16.4V240c0-4,2.6-7.3,5.8-7.3h5c3.2,0,5.8,3.3,5.8,7.3L200.2,254.2L200.2,254.2z     M200.3,225.1h-16.4v-14.2c0-4,2.6-7.3,5.8-7.3h5c3.2,0,5.8,3.3,5.8,7.3L200.3,225.1L200.3,225.1z" fill="#FFFFFF" id="XMLID_277_"/><path d="M307.3,196.5v212.1h84V196.5H307.3z M326.9,399.8h-16.4v-14.2c0-4,2.6-7.3,5.8-7.3h5    c3.2,0,5.8,3.3,5.8,7.3L326.9,399.8L326.9,399.8z M327,370.7h-16.4v-14.2c0-4,2.6-7.3,5.8-7.3h5c3.2,0,5.8,3.3,5.8,7.3L327,370.7    L327,370.7z M327.1,341.6h-16.4v-14.2c0-4,2.6-7.3,5.8-7.3h5c3.2,0,5.8,3.3,5.8,7.3L327.1,341.6L327.1,341.6z M327.1,312.4h-16.4    v-14.2c0-4,2.6-7.3,5.8-7.3h5c3.2,0,5.8,3.3,5.8,7.3L327.1,312.4L327.1,312.4z M327.2,283.3h-16.4v-14.2c0-4,2.6-7.3,5.8-7.3h5    c3.2,0,5.8,3.3,5.8,7.3L327.2,283.3L327.2,283.3z M327.3,254.2h-16.4V240c0-4,2.6-7.3,5.8-7.3h5c3.2,0,5.8,3.3,5.8,7.3    L327.3,254.2L327.3,254.2z M327.3,225.1h-16.4v-14.2c0-4,2.6-7.3,5.8-7.3h5c3.2,0,5.8,3.3,5.8,7.3L327.3,225.1L327.3,225.1z     M347,399.8h-16.4v-14.2c0-4,2.6-7.3,5.8-7.3h5c3.2,0,5.8,3.3,5.8,7.3L347,399.8L347,399.8z M347.1,370.7h-16.4v-14.2    c0-4,2.6-7.3,5.8-7.3h5c3.2,0,5.8,3.3,5.8,7.3L347.1,370.7L347.1,370.7z M347.2,341.6h-16.4v-14.2c0-4,2.6-7.3,5.8-7.3h5    c3.2,0,5.8,3.3,5.8,7.3L347.2,341.6L347.2,341.6z M347.3,312.4h-16.4v-14.2c0-4,2.6-7.3,5.8-7.3h5c3.2,0,5.8,3.3,5.8,7.3    L347.3,312.4L347.3,312.4z M347.4,283.3h-16.4v-14.2c0-4,2.6-7.3,5.8-7.3h5c3.2,0,5.8,3.3,5.8,7.3L347.4,283.3L347.4,283.3z     M347.4,254.2H331V240c0-4,2.6-7.3,5.8-7.3h5c3.2,0,5.8,3.3,5.8,7.3L347.4,254.2L347.4,254.2z M347.5,225.1H331v-14.2    c0-4,2.6-7.3,5.8-7.3h5c3.2,0,5.8,3.3,5.8,7.3L347.5,225.1L347.5,225.1z M367.2,399.8h-16.4v-14.2c0-4,2.6-7.3,5.8-7.3h5    c3.2,0,5.8,3.3,5.8,7.3L367.2,399.8L367.2,399.8z M367.3,370.7h-16.4v-14.2c0-4,2.6-7.3,5.8-7.3h5c3.2,0,5.8,3.3,5.8,7.3    L367.3,370.7L367.3,370.7z M367.3,341.6h-16.4v-14.2c0-4,2.6-7.3,5.8-7.3h5c3.2,0,5.8,3.3,5.8,7.3L367.3,341.6L367.3,341.6z     M367.5,312.4H351v-14.2c0-4,2.6-7.3,5.8-7.3h5c3.2,0,5.8,3.3,5.8,7.3L367.5,312.4L367.5,312.4z M367.5,283.3h-16.4v-14.2    c0-4,2.6-7.3,5.8-7.3h5c3.2,0,5.8,3.3,5.8,7.3L367.5,283.3L367.5,283.3z M367.6,254.2h-16.4V240c0-4,2.6-7.3,5.8-7.3h5    c3.2,0,5.8,3.3,5.8,7.3L367.6,254.2L367.6,254.2z M367.6,225.1h-16.4v-14.2c0-4,2.6-7.3,5.8-7.3h5c3.2,0,5.8,3.3,5.8,7.3    L367.6,225.1L367.6,225.1z M387.4,399.8h-16.4v-14.2c0-4,2.6-7.3,5.8-7.3h5c3.2,0,5.8,3.3,5.8,7.3L387.4,399.8L387.4,399.8z     M387.4,370.7H371v-14.2c0-4,2.6-7.3,5.8-7.3h5c3.2,0,5.8,3.3,5.8,7.3L387.4,370.7L387.4,370.7z M387.5,341.6H371v-14.2    c0-4,2.6-7.3,5.8-7.3h5c3.2,0,5.8,3.3,5.8,7.3L387.5,341.6L387.5,341.6z M387.6,312.4h-16.4v-14.2c0-4,2.6-7.3,5.8-7.3h5    c3.2,0,5.8,3.3,5.8,7.3L387.6,312.4L387.6,312.4z M387.6,283.3h-16.4v-14.2c0-4,2.6-7.3,5.8-7.3h5c3.2,0,5.8,3.3,5.8,7.3    L387.6,283.3L387.6,283.3z M387.7,254.2h-16.4V240c0-4,2.6-7.3,5.8-7.3h5c3.2,0,5.8,3.3,5.8,7.3L387.7,254.2L387.7,254.2z     M387.8,225.1h-16.4v-14.2c0-4,2.6-7.3,5.8-7.3h5c3.2,0,5.8,3.3,5.8,7.3L387.8,225.1L387.8,225.1z" fill="#FFFFFF" id="XMLID_247_"/><path d="M203.7,325.8v82.8h103.5v-82.8H203.7z M222.9,403.3h-15.3v-10.2h15.3V403.3z M222.9,387.6    h-15.3v-10.2h15.3V387.6z M222.9,372h-15.3v-10.2h15.3V372z M222.9,356.3h-15.3v-10.2h15.3V356.3z M222.9,340.6h-15.3v-10.2h15.3    V340.6z M243,403.3h-15.3v-10.2H243V403.3z M243,387.6h-15.3v-10.2H243V387.6z M243,372h-15.3v-10.2H243V372z M243,356.3h-15.3    v-10.2H243V356.3z M243,340.6h-15.3v-10.2H243V340.6z M263.1,403.3h-15.3v-10.2h15.3V403.3z M263.1,387.6h-15.3v-10.2h15.3V387.6z     M263.1,372h-15.3v-10.2h15.3V372z M263.1,356.3h-15.3v-10.2h15.3V356.3z M263.1,340.6h-15.3v-10.2h15.3V340.6z M283.1,403.3    h-15.3v-10.2h15.3V403.3z M283.1,387.6h-15.3v-10.2h15.3V387.6z M283.1,372h-15.3v-10.2h15.3V372z M283.1,356.3h-15.3v-10.2h15.3    V356.3z M283.1,340.6h-15.3v-10.2h15.3V340.6z M303.1,403.3h-15.3v-10.2h15.3V403.3z M303.1,387.6h-15.3v-10.2h15.3V387.6z     M303.1,372h-15.3v-10.2h15.3V372z M303.1,356.3h-15.3v-10.2h15.3V356.3z M303.1,340.6h-15.3v-10.2h15.3V340.6z" fill="#FFFFFF" id="XMLID_220_"/><path d="M203.7,153.3V325h103.5V153.3H203.7z M303.1,319.6h-95.3v-5.3h95.3V319.6z M303.1,307.6    h-95.3v-5.3h95.3V307.6z M303.1,295.6h-95.3v-5.3h95.3V295.6z M303.1,283.6h-95.3v-5.3h95.3V283.6z M303.1,271.6h-95.3v-5.3h95.3    V271.6z M303.1,259.6h-95.3v-5.3h95.3V259.6z M303.1,247.7h-95.3v-5.3h95.3V247.7z M303.1,235.6h-95.3v-5.2h95.3V235.6z     M303.1,223.7h-95.3v-5.3h95.3V223.7z M303.1,211.7h-95.3v-5.3h95.3V211.7z M303.1,199.7h-95.3v-5.3h95.3V199.7z M303.1,187.7    h-95.3v-5.3h95.3V187.7z M303.1,175.7h-95.3v-5.3h95.3V175.7z M303.1,163.8h-95.3v-5.3h95.3V163.8z" fill="#FFFFFF" id="XMLID_204_"/><polygon fill="#FFFFFF" id="XMLID_203_" points="202.2,141.1 119.8,161.5 119.8,194.8 202.2,194.8   "/><polygon fill="#FFFFFF" id="XMLID_202_" points="118.8,155.4 202.2,139.9 202.2,141.6 119.8,159.6   "/><polygon fill="#FFFFFF" id="XMLID_201_" points="308.5,141.3 390.9,161.7 390.9,195 308.5,195   "/><polygon fill="#FFFFFF" id="XMLID_16_" points="390.9,155.5 308.5,140.1 308.5,141.9 390.9,159.4   "/><g id="XMLID_4_"><path d="M244.2,115.3c-4.4,0-6.5,4-6.5,8.4c0,4.4,2.4,8.2,6.5,8.2c4.2,0,6.5-3.8,6.5-8.4     C250.7,119.6,248.5,115.3,244.2,115.3z" fill="#FFFFFF" id="XMLID_15_"/><path d="M203.7,96v56h101.6V96H203.7z M231.5,133.8h-2.6v-9.5h-9.8v9.5h-2.6v-20.3h2.6v8.5h9.8     v-8.5h2.6V133.8z M244,134.1c-5.4,0-9.1-4.2-9.1-10.3c0-6.5,4-10.6,9.4-10.6c5.6,0,9.1,4.2,9.1,10.2     C253.4,130.4,249.2,134.1,244,134.1z M268.8,115.7h-6.2v18h-2.6v-18h-6.1v-2.2h15V115.7z M282.4,133.8H271v-20.3H282v2.2h-8.3     v6.4h7.9v2.2h-7.9v7.3h8.8L282.4,133.8L282.4,133.8z M297.1,133.8h-11.3v-20.3h2.6v18.1h8.6V133.8z" fill="#FFFFFF" id="XMLID_17_"/></g><rect fill="#FFFFFF" height="6.1" id="XMLID_18_" width="285.5" x="113.2" y="409.9"/></g></g></svg>